<mxfile host="app.diagrams.net" modified="2024-01-18T11:45:10.044Z" agent="Mozilla/5.0 (Windows NT 10.0; Win64; x64) AppleWebKit/537.36 (KHTML, like Gecko) Chrome/120.0.0.0 Safari/537.36" etag="CwlQC_iiBd0u0QhQU8yv" version="22.1.21" type="device">
  <diagram name="Page-1" id="e9lrg-jUna5cyrBdN52v">
    <mxGraphModel dx="1434" dy="782" grid="1" gridSize="10" guides="1" tooltips="1" connect="1" arrows="1" fold="1" page="1" pageScale="1" pageWidth="827" pageHeight="1169" math="0" shadow="0">
      <root>
        <mxCell id="0" />
        <mxCell id="1" parent="0" />
        <mxCell id="u--2nJzXh-XLYtR7E8XA-1" value="" style="rounded=1;whiteSpace=wrap;html=1;" vertex="1" parent="1">
          <mxGeometry width="600" height="600" as="geometry" />
        </mxCell>
        <mxCell id="u--2nJzXh-XLYtR7E8XA-2" value="" style="rounded=1;whiteSpace=wrap;html=1;" vertex="1" parent="1">
          <mxGeometry x="400" y="100" width="100" height="100" as="geometry" />
        </mxCell>
        <mxCell id="u--2nJzXh-XLYtR7E8XA-3" value="" style="rounded=1;whiteSpace=wrap;html=1;" vertex="1" parent="1">
          <mxGeometry x="100" y="100" width="200" height="100" as="geometry" />
        </mxCell>
        <mxCell id="u--2nJzXh-XLYtR7E8XA-4" value="" style="rounded=1;whiteSpace=wrap;html=1;" vertex="1" parent="1">
          <mxGeometry x="100" y="300" width="100" height="200" as="geometry" />
        </mxCell>
        <mxCell id="u--2nJzXh-XLYtR7E8XA-5" value="" style="rounded=1;whiteSpace=wrap;html=1;" vertex="1" parent="1">
          <mxGeometry x="300" y="300" width="200" height="200" as="geometry" />
        </mxCell>
        <mxCell id="u--2nJzXh-XLYtR7E8XA-7" value="" style="shape=flexArrow;endArrow=classic;html=1;rounded=0;" edge="1" parent="1">
          <mxGeometry width="50" height="50" relative="1" as="geometry">
            <mxPoint x="150" y="540" as="sourcePoint" />
            <mxPoint x="100" y="520" as="targetPoint" />
            <Array as="points">
              <mxPoint x="120" y="540" />
            </Array>
          </mxGeometry>
        </mxCell>
        <mxCell id="u--2nJzXh-XLYtR7E8XA-9" value="" style="shape=flexArrow;endArrow=classic;html=1;rounded=0;fillColor=default;" edge="1" parent="1">
          <mxGeometry width="50" height="50" relative="1" as="geometry">
            <mxPoint x="450" y="50" as="sourcePoint" />
            <mxPoint x="500" y="70" as="targetPoint" />
            <Array as="points">
              <mxPoint x="480" y="50" />
            </Array>
          </mxGeometry>
        </mxCell>
        <mxCell id="u--2nJzXh-XLYtR7E8XA-10" value="" style="shape=flexArrow;endArrow=classic;html=1;rounded=0;" edge="1" parent="1">
          <mxGeometry width="50" height="50" relative="1" as="geometry">
            <mxPoint x="170" y="50" as="sourcePoint" />
            <mxPoint x="260" y="50" as="targetPoint" />
            <Array as="points">
              <mxPoint x="190" y="50" />
            </Array>
          </mxGeometry>
        </mxCell>
        <mxCell id="u--2nJzXh-XLYtR7E8XA-11" value="" style="shape=flexArrow;endArrow=classic;html=1;rounded=0;" edge="1" parent="1">
          <mxGeometry width="50" height="50" relative="1" as="geometry">
            <mxPoint x="170" y="50" as="sourcePoint" />
            <mxPoint x="230" y="80" as="targetPoint" />
            <Array as="points">
              <mxPoint x="200" y="50" />
            </Array>
          </mxGeometry>
        </mxCell>
        <mxCell id="u--2nJzXh-XLYtR7E8XA-12" value="" style="shape=flexArrow;endArrow=classic;html=1;rounded=0;" edge="1" parent="1">
          <mxGeometry width="50" height="50" relative="1" as="geometry">
            <mxPoint x="420" y="550" as="sourcePoint" />
            <mxPoint x="370" y="520" as="targetPoint" />
            <Array as="points">
              <mxPoint x="390" y="550" />
            </Array>
          </mxGeometry>
        </mxCell>
        <mxCell id="u--2nJzXh-XLYtR7E8XA-13" value="" style="shape=flexArrow;endArrow=classic;html=1;rounded=0;" edge="1" parent="1">
          <mxGeometry width="50" height="50" relative="1" as="geometry">
            <mxPoint x="550" y="450" as="sourcePoint" />
            <mxPoint x="530" y="500" as="targetPoint" />
            <Array as="points">
              <mxPoint x="550" y="480" />
            </Array>
          </mxGeometry>
        </mxCell>
        <mxCell id="u--2nJzXh-XLYtR7E8XA-14" value="" style="shape=flexArrow;endArrow=classic;html=1;rounded=0;" edge="1" parent="1">
          <mxGeometry width="50" height="50" relative="1" as="geometry">
            <mxPoint x="40" y="150" as="sourcePoint" />
            <mxPoint x="70" y="100" as="targetPoint" />
            <Array as="points">
              <mxPoint x="40" y="120" />
            </Array>
          </mxGeometry>
        </mxCell>
        <mxCell id="u--2nJzXh-XLYtR7E8XA-15" value="" style="shape=flexArrow;endArrow=classic;html=1;rounded=0;" edge="1" parent="1">
          <mxGeometry width="50" height="50" relative="1" as="geometry">
            <mxPoint x="400" y="550" as="sourcePoint" />
            <mxPoint x="340" y="550" as="targetPoint" />
          </mxGeometry>
        </mxCell>
        <mxCell id="u--2nJzXh-XLYtR7E8XA-16" value="" style="shape=flexArrow;endArrow=classic;html=1;rounded=0;" edge="1" parent="1">
          <mxGeometry width="50" height="50" relative="1" as="geometry">
            <mxPoint x="50" y="425" as="sourcePoint" />
            <mxPoint x="80" y="375" as="targetPoint" />
            <Array as="points">
              <mxPoint x="50" y="395" />
            </Array>
          </mxGeometry>
        </mxCell>
        <mxCell id="u--2nJzXh-XLYtR7E8XA-17" value="" style="shape=flexArrow;endArrow=classic;html=1;rounded=0;" edge="1" parent="1">
          <mxGeometry width="50" height="50" relative="1" as="geometry">
            <mxPoint x="50" y="440" as="sourcePoint" />
            <mxPoint x="50" y="350" as="targetPoint" />
          </mxGeometry>
        </mxCell>
        <mxCell id="u--2nJzXh-XLYtR7E8XA-22" value="" style="shape=flexArrow;endArrow=classic;html=1;rounded=0;fillColor=default;" edge="1" parent="1">
          <mxGeometry width="50" height="50" relative="1" as="geometry">
            <mxPoint x="550" y="100" as="sourcePoint" />
            <mxPoint x="550" y="170" as="targetPoint" />
          </mxGeometry>
        </mxCell>
        <mxCell id="u--2nJzXh-XLYtR7E8XA-23" value="" style="shape=flexArrow;endArrow=classic;html=1;rounded=0;fillColor=default;" edge="1" parent="1">
          <mxGeometry width="50" height="50" relative="1" as="geometry">
            <mxPoint x="550" y="100" as="sourcePoint" />
            <mxPoint x="520" y="150" as="targetPoint" />
            <Array as="points">
              <mxPoint x="550" y="120" />
            </Array>
          </mxGeometry>
        </mxCell>
        <mxCell id="u--2nJzXh-XLYtR7E8XA-25" value="" style="rounded=0;whiteSpace=wrap;html=1;" vertex="1" parent="1">
          <mxGeometry x="20" y="170" width="10" height="30" as="geometry" />
        </mxCell>
        <mxCell id="u--2nJzXh-XLYtR7E8XA-33" value="" style="rounded=0;whiteSpace=wrap;html=1;" vertex="1" parent="1">
          <mxGeometry x="470" y="230" width="30" height="10" as="geometry" />
        </mxCell>
        <mxCell id="u--2nJzXh-XLYtR7E8XA-34" value="" style="rounded=0;whiteSpace=wrap;html=1;" vertex="1" parent="1">
          <mxGeometry x="470" y="210" width="30" height="10" as="geometry" />
        </mxCell>
        <mxCell id="u--2nJzXh-XLYtR7E8XA-35" value="" style="rounded=0;whiteSpace=wrap;html=1;" vertex="1" parent="1">
          <mxGeometry x="300" y="574.5" width="30" height="10" as="geometry" />
        </mxCell>
        <mxCell id="u--2nJzXh-XLYtR7E8XA-36" value="" style="rounded=0;whiteSpace=wrap;html=1;" vertex="1" parent="1">
          <mxGeometry x="300" y="550" width="30" height="10" as="geometry" />
        </mxCell>
        <mxCell id="u--2nJzXh-XLYtR7E8XA-37" value="" style="rounded=0;whiteSpace=wrap;html=1;" vertex="1" parent="1">
          <mxGeometry x="300" y="530" width="30" height="10" as="geometry" />
        </mxCell>
        <mxCell id="u--2nJzXh-XLYtR7E8XA-38" value="" style="rounded=0;whiteSpace=wrap;html=1;" vertex="1" parent="1">
          <mxGeometry x="300" y="510" width="30" height="10" as="geometry" />
        </mxCell>
        <mxCell id="u--2nJzXh-XLYtR7E8XA-39" value="" style="rounded=0;whiteSpace=wrap;html=1;" vertex="1" parent="1">
          <mxGeometry x="170" y="574.5" width="30" height="10" as="geometry" />
        </mxCell>
        <mxCell id="u--2nJzXh-XLYtR7E8XA-40" value="" style="rounded=0;whiteSpace=wrap;html=1;" vertex="1" parent="1">
          <mxGeometry x="170" y="550" width="30" height="10" as="geometry" />
        </mxCell>
        <mxCell id="u--2nJzXh-XLYtR7E8XA-41" value="" style="rounded=0;whiteSpace=wrap;html=1;" vertex="1" parent="1">
          <mxGeometry x="170" y="530" width="30" height="10" as="geometry" />
        </mxCell>
        <mxCell id="u--2nJzXh-XLYtR7E8XA-42" value="" style="rounded=0;whiteSpace=wrap;html=1;" vertex="1" parent="1">
          <mxGeometry x="170" y="510" width="30" height="10" as="geometry" />
        </mxCell>
        <mxCell id="u--2nJzXh-XLYtR7E8XA-43" value="" style="rounded=0;whiteSpace=wrap;html=1;" vertex="1" parent="1">
          <mxGeometry x="100" y="230" width="30" height="10" as="geometry" />
        </mxCell>
        <mxCell id="u--2nJzXh-XLYtR7E8XA-44" value="" style="rounded=0;whiteSpace=wrap;html=1;" vertex="1" parent="1">
          <mxGeometry x="100" y="210" width="30" height="10" as="geometry" />
        </mxCell>
        <mxCell id="u--2nJzXh-XLYtR7E8XA-45" value="" style="rounded=0;whiteSpace=wrap;html=1;" vertex="1" parent="1">
          <mxGeometry x="470" y="275" width="30" height="10" as="geometry" />
        </mxCell>
        <mxCell id="u--2nJzXh-XLYtR7E8XA-46" value="" style="rounded=0;whiteSpace=wrap;html=1;" vertex="1" parent="1">
          <mxGeometry x="470" y="250" width="30" height="10" as="geometry" />
        </mxCell>
        <mxCell id="u--2nJzXh-XLYtR7E8XA-47" value="" style="rounded=0;whiteSpace=wrap;html=1;" vertex="1" parent="1">
          <mxGeometry x="399" y="60" width="30" height="10" as="geometry" />
        </mxCell>
        <mxCell id="u--2nJzXh-XLYtR7E8XA-48" value="" style="rounded=0;whiteSpace=wrap;html=1;" vertex="1" parent="1">
          <mxGeometry x="400" y="80" width="30" height="10" as="geometry" />
        </mxCell>
        <mxCell id="u--2nJzXh-XLYtR7E8XA-49" value="" style="rounded=0;whiteSpace=wrap;html=1;" vertex="1" parent="1">
          <mxGeometry x="270" y="20" width="30" height="10" as="geometry" />
        </mxCell>
        <mxCell id="u--2nJzXh-XLYtR7E8XA-50" value="" style="rounded=0;whiteSpace=wrap;html=1;" vertex="1" parent="1">
          <mxGeometry x="270" y="40" width="30" height="10" as="geometry" />
        </mxCell>
        <mxCell id="u--2nJzXh-XLYtR7E8XA-51" value="" style="rounded=0;whiteSpace=wrap;html=1;" vertex="1" parent="1">
          <mxGeometry x="270" y="60" width="30" height="10" as="geometry" />
        </mxCell>
        <mxCell id="u--2nJzXh-XLYtR7E8XA-52" value="" style="rounded=0;whiteSpace=wrap;html=1;" vertex="1" parent="1">
          <mxGeometry x="270" y="80" width="30" height="10" as="geometry" />
        </mxCell>
        <mxCell id="u--2nJzXh-XLYtR7E8XA-53" value="" style="rounded=0;whiteSpace=wrap;html=1;" vertex="1" parent="1">
          <mxGeometry x="100" y="275" width="30" height="10" as="geometry" />
        </mxCell>
        <mxCell id="u--2nJzXh-XLYtR7E8XA-54" value="" style="rounded=0;whiteSpace=wrap;html=1;" vertex="1" parent="1">
          <mxGeometry x="100" y="250" width="30" height="10" as="geometry" />
        </mxCell>
        <mxCell id="u--2nJzXh-XLYtR7E8XA-55" value="" style="rounded=0;whiteSpace=wrap;html=1;" vertex="1" parent="1">
          <mxGeometry x="210" y="300" width="10" height="30" as="geometry" />
        </mxCell>
        <mxCell id="u--2nJzXh-XLYtR7E8XA-56" value="" style="rounded=0;whiteSpace=wrap;html=1;" vertex="1" parent="1">
          <mxGeometry x="320" y="170" width="10" height="30" as="geometry" />
        </mxCell>
        <mxCell id="u--2nJzXh-XLYtR7E8XA-57" value="" style="rounded=0;whiteSpace=wrap;html=1;" vertex="1" parent="1">
          <mxGeometry x="340" y="170" width="10" height="30" as="geometry" />
        </mxCell>
        <mxCell id="u--2nJzXh-XLYtR7E8XA-58" value="" style="rounded=0;whiteSpace=wrap;html=1;" vertex="1" parent="1">
          <mxGeometry x="360" y="170" width="10" height="30" as="geometry" />
        </mxCell>
        <mxCell id="u--2nJzXh-XLYtR7E8XA-59" value="" style="rounded=0;whiteSpace=wrap;html=1;" vertex="1" parent="1">
          <mxGeometry x="380" y="170" width="10" height="30" as="geometry" />
        </mxCell>
        <mxCell id="u--2nJzXh-XLYtR7E8XA-60" value="" style="rounded=0;whiteSpace=wrap;html=1;" vertex="1" parent="1">
          <mxGeometry x="570" y="170" width="10" height="30" as="geometry" />
        </mxCell>
        <mxCell id="u--2nJzXh-XLYtR7E8XA-61" value="" style="rounded=0;whiteSpace=wrap;html=1;" vertex="1" parent="1">
          <mxGeometry x="550" y="170" width="10" height="30" as="geometry" />
        </mxCell>
        <mxCell id="u--2nJzXh-XLYtR7E8XA-62" value="" style="rounded=0;whiteSpace=wrap;html=1;" vertex="1" parent="1">
          <mxGeometry x="530" y="170" width="10" height="30" as="geometry" />
        </mxCell>
        <mxCell id="u--2nJzXh-XLYtR7E8XA-63" value="" style="rounded=0;whiteSpace=wrap;html=1;" vertex="1" parent="1">
          <mxGeometry x="510" y="170" width="10" height="30" as="geometry" />
        </mxCell>
        <mxCell id="u--2nJzXh-XLYtR7E8XA-64" value="" style="rounded=0;whiteSpace=wrap;html=1;" vertex="1" parent="1">
          <mxGeometry x="399" y="20" width="30" height="10" as="geometry" />
        </mxCell>
        <mxCell id="u--2nJzXh-XLYtR7E8XA-65" value="" style="rounded=0;whiteSpace=wrap;html=1;" vertex="1" parent="1">
          <mxGeometry x="400" y="40" width="30" height="10" as="geometry" />
        </mxCell>
        <mxCell id="u--2nJzXh-XLYtR7E8XA-75" value="" style="rounded=0;whiteSpace=wrap;html=1;" vertex="1" parent="1">
          <mxGeometry x="20" y="300" width="10" height="30" as="geometry" />
        </mxCell>
        <mxCell id="u--2nJzXh-XLYtR7E8XA-76" value="" style="rounded=0;whiteSpace=wrap;html=1;" vertex="1" parent="1">
          <mxGeometry x="40" y="300" width="10" height="30" as="geometry" />
        </mxCell>
        <mxCell id="u--2nJzXh-XLYtR7E8XA-77" value="" style="rounded=0;whiteSpace=wrap;html=1;" vertex="1" parent="1">
          <mxGeometry x="60" y="300" width="10" height="30" as="geometry" />
        </mxCell>
        <mxCell id="u--2nJzXh-XLYtR7E8XA-78" value="" style="rounded=0;whiteSpace=wrap;html=1;" vertex="1" parent="1">
          <mxGeometry x="80" y="300" width="10" height="30" as="geometry" />
        </mxCell>
        <mxCell id="u--2nJzXh-XLYtR7E8XA-79" value="" style="rounded=0;whiteSpace=wrap;html=1;" vertex="1" parent="1">
          <mxGeometry x="270" y="300" width="10" height="30" as="geometry" />
        </mxCell>
        <mxCell id="u--2nJzXh-XLYtR7E8XA-80" value="" style="rounded=0;whiteSpace=wrap;html=1;" vertex="1" parent="1">
          <mxGeometry x="250" y="300" width="10" height="30" as="geometry" />
        </mxCell>
        <mxCell id="u--2nJzXh-XLYtR7E8XA-81" value="" style="rounded=0;whiteSpace=wrap;html=1;" vertex="1" parent="1">
          <mxGeometry x="230" y="300" width="10" height="30" as="geometry" />
        </mxCell>
        <mxCell id="u--2nJzXh-XLYtR7E8XA-82" value="" style="rounded=0;whiteSpace=wrap;html=1;" vertex="1" parent="1">
          <mxGeometry x="570" y="300" width="10" height="30" as="geometry" />
        </mxCell>
        <mxCell id="u--2nJzXh-XLYtR7E8XA-83" value="" style="rounded=0;whiteSpace=wrap;html=1;" vertex="1" parent="1">
          <mxGeometry x="550" y="300" width="10" height="30" as="geometry" />
        </mxCell>
        <mxCell id="u--2nJzXh-XLYtR7E8XA-84" value="" style="rounded=0;whiteSpace=wrap;html=1;" vertex="1" parent="1">
          <mxGeometry x="530" y="300" width="10" height="30" as="geometry" />
        </mxCell>
        <mxCell id="u--2nJzXh-XLYtR7E8XA-85" value="" style="rounded=0;whiteSpace=wrap;html=1;" vertex="1" parent="1">
          <mxGeometry x="510" y="300" width="10" height="30" as="geometry" />
        </mxCell>
        <mxCell id="u--2nJzXh-XLYtR7E8XA-86" value="" style="rounded=0;whiteSpace=wrap;html=1;" vertex="1" parent="1">
          <mxGeometry x="270" y="470" width="10" height="30" as="geometry" />
        </mxCell>
        <mxCell id="u--2nJzXh-XLYtR7E8XA-87" value="" style="rounded=0;whiteSpace=wrap;html=1;" vertex="1" parent="1">
          <mxGeometry x="250" y="470" width="10" height="30" as="geometry" />
        </mxCell>
        <mxCell id="u--2nJzXh-XLYtR7E8XA-88" value="" style="rounded=0;whiteSpace=wrap;html=1;" vertex="1" parent="1">
          <mxGeometry x="230" y="470" width="10" height="30" as="geometry" />
        </mxCell>
        <mxCell id="u--2nJzXh-XLYtR7E8XA-89" value="" style="rounded=0;whiteSpace=wrap;html=1;" vertex="1" parent="1">
          <mxGeometry x="210" y="470" width="10" height="30" as="geometry" />
        </mxCell>
        <mxCell id="u--2nJzXh-XLYtR7E8XA-90" value="" style="rounded=0;whiteSpace=wrap;html=1;" vertex="1" parent="1">
          <mxGeometry x="380" y="100" width="10" height="30" as="geometry" />
        </mxCell>
        <mxCell id="u--2nJzXh-XLYtR7E8XA-91" value="" style="rounded=0;whiteSpace=wrap;html=1;" vertex="1" parent="1">
          <mxGeometry x="360" y="100" width="10" height="30" as="geometry" />
        </mxCell>
        <mxCell id="u--2nJzXh-XLYtR7E8XA-92" value="" style="rounded=0;whiteSpace=wrap;html=1;" vertex="1" parent="1">
          <mxGeometry x="340" y="100" width="10" height="30" as="geometry" />
        </mxCell>
        <mxCell id="u--2nJzXh-XLYtR7E8XA-93" value="" style="rounded=0;whiteSpace=wrap;html=1;" vertex="1" parent="1">
          <mxGeometry x="320" y="100" width="10" height="30" as="geometry" />
        </mxCell>
        <mxCell id="u--2nJzXh-XLYtR7E8XA-94" value="" style="rounded=0;whiteSpace=wrap;html=1;" vertex="1" parent="1">
          <mxGeometry x="40" y="170" width="10" height="30" as="geometry" />
        </mxCell>
        <mxCell id="u--2nJzXh-XLYtR7E8XA-95" value="" style="rounded=0;whiteSpace=wrap;html=1;" vertex="1" parent="1">
          <mxGeometry x="60" y="170" width="10" height="30" as="geometry" />
        </mxCell>
        <mxCell id="u--2nJzXh-XLYtR7E8XA-96" value="" style="rounded=0;whiteSpace=wrap;html=1;" vertex="1" parent="1">
          <mxGeometry x="80" y="170" width="10" height="30" as="geometry" />
        </mxCell>
      </root>
    </mxGraphModel>
  </diagram>
</mxfile>
